<?xml version="1.0" standalone="no"?>
<!DOCTYPE svg PUBLIC "-//W3C//DTD SVG 20010904//EN"
 "http://www.w3.org/TR/2001/REC-SVG-20010904/DTD/svg10.dtd">
<svg version="1.0" xmlns="http://www.w3.org/2000/svg"
 width="512.000000pt" height="512.000000pt" viewBox="0 0 512.000000 512.000000"
 preserveAspectRatio="xMidYMid meet">

<g transform="translate(0.000000,512.000000) scale(0.100000,-0.100000)"
fill="#000000" stroke="none">
<path d="M3594 4881 c-81 -21 -81 -20 -740 -925 l-81 -111 -140 -3 -141 -3
-459 279 c-252 153 -500 305 -552 337 -92 57 -96 58 -165 58 -81 -1 -128 -17
-170 -59 -36 -37 -43 -55 -51 -142 -7 -66 -6 -73 26 -132 19 -36 46 -71 64
-82 16 -10 122 -71 233 -136 l204 -117 -294 -5 c-284 -5 -295 -6 -364 -31
-187 -68 -330 -229 -370 -418 -21 -99 -20 -2124 1 -2224 45 -212 240 -401 452
-436 49 -9 473 -11 1543 -9 l1475 3 55 21 c188 72 313 198 371 375 l24 74 0
1080 c0 1181 3 1119 -61 1252 -61 128 -202 247 -349 294 -28 9 -151 14 -418
18 l-379 6 60 80 c206 279 443 605 460 635 95 156 -59 366 -234 321z m471
-1410 c51 -23 101 -79 114 -128 15 -54 15 -2073 0 -2128 -14 -50 -84 -120
-136 -134 -26 -8 -510 -11 -1511 -11 -1616 0 -1501 -4 -1555 60 -15 17 -31 47
-37 68 -14 52 -14 2093 1 2145 13 49 63 105 114 128 38 18 109 19 1505 19
1396 0 1467 -1 1505 -19z"/>
<path d="M1576 2859 c-169 -38 -323 -76 -342 -85 -50 -24 -74 -69 -74 -142 0
-72 12 -107 48 -145 51 -54 67 -53 439 13 188 33 353 68 373 77 53 28 80 75
80 144 0 71 -12 104 -53 147 -42 45 -78 62 -124 61 -21 0 -177 -32 -347 -70z"/>
<path d="M3113 2910 c-50 -30 -63 -58 -65 -141 -3 -91 19 -135 84 -168 49 -24
608 -131 686 -131 59 0 108 29 128 75 18 45 18 148 -1 185 -16 31 -67 74 -100
84 -51 15 -624 116 -659 116 -23 0 -55 -9 -73 -20z"/>
<path d="M2053 2092 c-39 -6 -73 -57 -73 -111 0 -104 48 -202 136 -280 104
-91 297 -96 406 -10 45 35 77 37 115 5 61 -51 93 -61 188 -61 100 1 188 26
233 67 95 87 167 313 114 361 -23 21 -109 40 -150 32 -41 -8 -58 -36 -65 -108
-5 -47 -12 -65 -42 -100 -46 -53 -70 -66 -122 -67 -73 0 -146 83 -159 184 -10
68 -42 91 -122 87 -38 -2 -72 -44 -72 -91 0 -146 -144 -212 -236 -108 -31 34
-67 126 -60 154 3 12 1 26 -4 29 -19 12 -65 21 -87 17z"/>
</g>
</svg>
